<svg xmlns="http://www.w3.org/2000/svg" version="1.1" xmlns:xlink="http://www.w3.org/1999/xlink" xmlns:svgjs="http://svgjs.dev/svgjs" width="1440" height="560" preserveAspectRatio="none" viewBox="0 0 1440 560"><g mask="url(&quot;#SvgjsMask1007&quot;)" fill="none"><path d="M18.56 -61.07L83.51 -23.57L83.51 51.43L18.56 88.93L-46.39 51.43L-46.39 -23.57zM148.47 -61.07L213.42 -23.57L213.42 51.43L148.47 88.93L83.51 51.43L83.51 -23.57zM213.42 51.43L278.38 88.93L278.38 163.93L213.42 201.43L148.47 163.93L148.47 88.93zM213.42 276.43L278.38 313.93L278.38 388.93L213.42 426.43L148.47 388.93L148.47 313.93zM278.38 -61.07L343.33 -23.57L343.33 51.43L278.38 88.93L213.42 51.43L213.42 -23.57zM343.33 51.43L408.28 88.93L408.28 163.93L343.33 201.43L278.38 163.93L278.38 88.93zM343.33 501.43L408.28 538.93L408.28 613.93L343.33 651.43L278.38 613.93L278.38 538.93zM473.24 276.43L538.19 313.93L538.19 388.93L473.24 426.43L408.28 388.93L408.28 313.93zM473.24 501.43L538.19 538.93L538.19 613.93L473.24 651.43L408.28 613.93L408.28 538.93zM603.14 276.43L668.1 313.93L668.1 388.93L603.14 426.43L538.19 388.93L538.19 313.93zM603.14 501.43L668.1 538.93L668.1 613.93L603.14 651.43L538.19 613.93L538.19 538.93zM668.1 -61.07L733.05 -23.57L733.05 51.43L668.1 88.93L603.14 51.43L603.14 -23.57zM733.05 276.43L798 313.93L798 388.93L733.05 426.43L668.1 388.93L668.1 313.93zM798 388.93L862.96 426.43L862.96 501.43L798 538.93L733.05 501.43L733.05 426.43zM862.96 501.43L927.91 538.93L927.91 613.93L862.96 651.43L798 613.93L798 538.93zM927.91 -61.07L992.87 -23.57L992.87 51.43L927.91 88.93L862.96 51.43L862.96 -23.57zM927.91 163.93L992.87 201.43L992.87 276.43L927.91 313.93L862.96 276.43L862.96 201.43zM992.87 276.43L1057.82 313.93L1057.82 388.93L992.87 426.43L927.91 388.93L927.91 313.93zM1122.77 51.43L1187.73 88.93L1187.73 163.93L1122.77 201.43L1057.82 163.93L1057.82 88.93zM1057.82 163.93L1122.77 201.43L1122.77 276.43L1057.82 313.93L992.87 276.43L992.87 201.43zM1252.68 276.43L1317.63 313.93L1317.63 388.93L1252.68 426.43L1187.73 388.93L1187.73 313.93zM1252.68 501.43L1317.63 538.93L1317.63 613.93L1252.68 651.43L1187.73 613.93L1187.73 538.93zM1382.59 51.43L1447.54 88.93L1447.54 163.93L1382.59 201.43L1317.63 163.93L1317.63 88.93z" stroke="rgba(102, 0, 255, 1)" stroke-width="2"></path><path d="M11.06 -61.07 a7.5 7.5 0 1 0 15 0 a7.5 7.5 0 1 0 -15 0zM76.01 -23.57 a7.5 7.5 0 1 0 15 0 a7.5 7.5 0 1 0 -15 0zM76.01 51.43 a7.5 7.5 0 1 0 15 0 a7.5 7.5 0 1 0 -15 0zM11.06 88.93 a7.5 7.5 0 1 0 15 0 a7.5 7.5 0 1 0 -15 0zM-53.89 51.43 a7.5 7.5 0 1 0 15 0 a7.5 7.5 0 1 0 -15 0zM-53.89 -23.57 a7.5 7.5 0 1 0 15 0 a7.5 7.5 0 1 0 -15 0zM140.97 -61.07 a7.5 7.5 0 1 0 15 0 a7.5 7.5 0 1 0 -15 0zM205.92 -23.57 a7.5 7.5 0 1 0 15 0 a7.5 7.5 0 1 0 -15 0zM205.92 51.43 a7.5 7.5 0 1 0 15 0 a7.5 7.5 0 1 0 -15 0zM140.97 88.93 a7.5 7.5 0 1 0 15 0 a7.5 7.5 0 1 0 -15 0zM270.88 88.93 a7.5 7.5 0 1 0 15 0 a7.5 7.5 0 1 0 -15 0zM270.88 163.93 a7.5 7.5 0 1 0 15 0 a7.5 7.5 0 1 0 -15 0zM205.92 201.43 a7.5 7.5 0 1 0 15 0 a7.5 7.5 0 1 0 -15 0zM140.97 163.93 a7.5 7.5 0 1 0 15 0 a7.5 7.5 0 1 0 -15 0zM205.92 276.43 a7.5 7.5 0 1 0 15 0 a7.5 7.5 0 1 0 -15 0zM270.88 313.93 a7.5 7.5 0 1 0 15 0 a7.5 7.5 0 1 0 -15 0zM270.88 388.93 a7.5 7.5 0 1 0 15 0 a7.5 7.5 0 1 0 -15 0zM205.92 426.43 a7.5 7.5 0 1 0 15 0 a7.5 7.5 0 1 0 -15 0zM140.97 388.93 a7.5 7.5 0 1 0 15 0 a7.5 7.5 0 1 0 -15 0zM140.97 313.93 a7.5 7.5 0 1 0 15 0 a7.5 7.5 0 1 0 -15 0zM270.88 -61.07 a7.5 7.5 0 1 0 15 0 a7.5 7.5 0 1 0 -15 0zM335.83 -23.57 a7.5 7.5 0 1 0 15 0 a7.5 7.5 0 1 0 -15 0zM335.83 51.43 a7.5 7.5 0 1 0 15 0 a7.5 7.5 0 1 0 -15 0zM400.78 88.93 a7.5 7.5 0 1 0 15 0 a7.5 7.5 0 1 0 -15 0zM400.78 163.93 a7.5 7.5 0 1 0 15 0 a7.5 7.5 0 1 0 -15 0zM335.83 201.43 a7.5 7.5 0 1 0 15 0 a7.5 7.5 0 1 0 -15 0zM335.83 501.43 a7.5 7.5 0 1 0 15 0 a7.5 7.5 0 1 0 -15 0zM400.78 538.93 a7.5 7.5 0 1 0 15 0 a7.5 7.5 0 1 0 -15 0zM400.78 613.93 a7.5 7.5 0 1 0 15 0 a7.5 7.5 0 1 0 -15 0zM335.83 651.43 a7.5 7.5 0 1 0 15 0 a7.5 7.5 0 1 0 -15 0zM270.88 613.93 a7.5 7.5 0 1 0 15 0 a7.5 7.5 0 1 0 -15 0zM270.88 538.93 a7.5 7.5 0 1 0 15 0 a7.5 7.5 0 1 0 -15 0zM465.74 276.43 a7.5 7.5 0 1 0 15 0 a7.5 7.5 0 1 0 -15 0zM530.69 313.93 a7.5 7.5 0 1 0 15 0 a7.5 7.5 0 1 0 -15 0zM530.69 388.93 a7.5 7.5 0 1 0 15 0 a7.5 7.5 0 1 0 -15 0zM465.74 426.43 a7.5 7.5 0 1 0 15 0 a7.5 7.5 0 1 0 -15 0zM400.78 388.93 a7.5 7.5 0 1 0 15 0 a7.5 7.5 0 1 0 -15 0zM400.78 313.93 a7.5 7.5 0 1 0 15 0 a7.5 7.5 0 1 0 -15 0zM465.74 501.43 a7.5 7.5 0 1 0 15 0 a7.5 7.5 0 1 0 -15 0zM530.69 538.93 a7.5 7.5 0 1 0 15 0 a7.5 7.5 0 1 0 -15 0zM530.69 613.93 a7.5 7.5 0 1 0 15 0 a7.5 7.5 0 1 0 -15 0zM465.74 651.43 a7.5 7.5 0 1 0 15 0 a7.5 7.5 0 1 0 -15 0zM595.64 276.43 a7.5 7.5 0 1 0 15 0 a7.5 7.5 0 1 0 -15 0zM660.6 313.93 a7.5 7.5 0 1 0 15 0 a7.5 7.5 0 1 0 -15 0zM660.6 388.93 a7.5 7.5 0 1 0 15 0 a7.5 7.5 0 1 0 -15 0zM595.64 426.43 a7.5 7.5 0 1 0 15 0 a7.5 7.5 0 1 0 -15 0zM595.64 501.43 a7.5 7.5 0 1 0 15 0 a7.5 7.5 0 1 0 -15 0zM660.6 538.93 a7.5 7.5 0 1 0 15 0 a7.5 7.5 0 1 0 -15 0zM660.6 613.93 a7.5 7.5 0 1 0 15 0 a7.5 7.5 0 1 0 -15 0zM595.64 651.43 a7.5 7.5 0 1 0 15 0 a7.5 7.5 0 1 0 -15 0zM660.6 -61.07 a7.5 7.5 0 1 0 15 0 a7.5 7.5 0 1 0 -15 0zM725.55 -23.57 a7.5 7.5 0 1 0 15 0 a7.5 7.5 0 1 0 -15 0zM725.55 51.43 a7.5 7.5 0 1 0 15 0 a7.5 7.5 0 1 0 -15 0zM660.6 88.93 a7.5 7.5 0 1 0 15 0 a7.5 7.5 0 1 0 -15 0zM595.64 51.43 a7.5 7.5 0 1 0 15 0 a7.5 7.5 0 1 0 -15 0zM595.64 -23.57 a7.5 7.5 0 1 0 15 0 a7.5 7.5 0 1 0 -15 0zM725.55 276.43 a7.5 7.5 0 1 0 15 0 a7.5 7.5 0 1 0 -15 0zM790.5 313.93 a7.5 7.5 0 1 0 15 0 a7.5 7.5 0 1 0 -15 0zM790.5 388.93 a7.5 7.5 0 1 0 15 0 a7.5 7.5 0 1 0 -15 0zM725.55 426.43 a7.5 7.5 0 1 0 15 0 a7.5 7.5 0 1 0 -15 0zM855.46 426.43 a7.5 7.5 0 1 0 15 0 a7.5 7.5 0 1 0 -15 0zM855.46 501.43 a7.5 7.5 0 1 0 15 0 a7.5 7.5 0 1 0 -15 0zM790.5 538.93 a7.5 7.5 0 1 0 15 0 a7.5 7.5 0 1 0 -15 0zM725.55 501.43 a7.5 7.5 0 1 0 15 0 a7.5 7.5 0 1 0 -15 0zM920.41 538.93 a7.5 7.5 0 1 0 15 0 a7.5 7.5 0 1 0 -15 0zM920.41 613.93 a7.5 7.5 0 1 0 15 0 a7.5 7.5 0 1 0 -15 0zM855.46 651.43 a7.5 7.5 0 1 0 15 0 a7.5 7.5 0 1 0 -15 0zM790.5 613.93 a7.5 7.5 0 1 0 15 0 a7.5 7.5 0 1 0 -15 0zM920.41 -61.07 a7.5 7.5 0 1 0 15 0 a7.5 7.5 0 1 0 -15 0zM985.37 -23.57 a7.5 7.5 0 1 0 15 0 a7.5 7.5 0 1 0 -15 0zM985.37 51.43 a7.5 7.5 0 1 0 15 0 a7.5 7.5 0 1 0 -15 0zM920.41 88.93 a7.5 7.5 0 1 0 15 0 a7.5 7.5 0 1 0 -15 0zM855.46 51.43 a7.5 7.5 0 1 0 15 0 a7.5 7.5 0 1 0 -15 0zM855.46 -23.57 a7.5 7.5 0 1 0 15 0 a7.5 7.5 0 1 0 -15 0zM920.41 163.93 a7.5 7.5 0 1 0 15 0 a7.5 7.5 0 1 0 -15 0zM985.37 201.43 a7.5 7.5 0 1 0 15 0 a7.5 7.5 0 1 0 -15 0zM985.37 276.43 a7.5 7.5 0 1 0 15 0 a7.5 7.5 0 1 0 -15 0zM920.41 313.93 a7.5 7.5 0 1 0 15 0 a7.5 7.5 0 1 0 -15 0zM855.46 276.43 a7.5 7.5 0 1 0 15 0 a7.5 7.5 0 1 0 -15 0zM855.46 201.43 a7.5 7.5 0 1 0 15 0 a7.5 7.5 0 1 0 -15 0zM1050.32 313.93 a7.5 7.5 0 1 0 15 0 a7.5 7.5 0 1 0 -15 0zM1050.32 388.93 a7.5 7.5 0 1 0 15 0 a7.5 7.5 0 1 0 -15 0zM985.37 426.43 a7.5 7.5 0 1 0 15 0 a7.5 7.5 0 1 0 -15 0zM920.41 388.93 a7.5 7.5 0 1 0 15 0 a7.5 7.5 0 1 0 -15 0zM1115.27 51.43 a7.5 7.5 0 1 0 15 0 a7.5 7.5 0 1 0 -15 0zM1180.23 88.93 a7.5 7.5 0 1 0 15 0 a7.5 7.5 0 1 0 -15 0zM1180.23 163.93 a7.5 7.5 0 1 0 15 0 a7.5 7.5 0 1 0 -15 0zM1115.27 201.43 a7.5 7.5 0 1 0 15 0 a7.5 7.5 0 1 0 -15 0zM1050.32 163.93 a7.5 7.5 0 1 0 15 0 a7.5 7.5 0 1 0 -15 0zM1050.32 88.93 a7.5 7.5 0 1 0 15 0 a7.5 7.5 0 1 0 -15 0zM1115.27 276.43 a7.5 7.5 0 1 0 15 0 a7.5 7.5 0 1 0 -15 0zM1245.18 276.43 a7.5 7.5 0 1 0 15 0 a7.5 7.5 0 1 0 -15 0zM1310.13 313.93 a7.5 7.5 0 1 0 15 0 a7.5 7.5 0 1 0 -15 0zM1310.13 388.93 a7.5 7.5 0 1 0 15 0 a7.5 7.5 0 1 0 -15 0zM1245.18 426.43 a7.5 7.5 0 1 0 15 0 a7.5 7.5 0 1 0 -15 0zM1180.23 388.93 a7.5 7.5 0 1 0 15 0 a7.5 7.5 0 1 0 -15 0zM1180.23 313.93 a7.5 7.5 0 1 0 15 0 a7.5 7.5 0 1 0 -15 0zM1245.18 501.43 a7.5 7.5 0 1 0 15 0 a7.5 7.5 0 1 0 -15 0zM1310.13 538.93 a7.5 7.5 0 1 0 15 0 a7.5 7.5 0 1 0 -15 0zM1310.13 613.93 a7.5 7.5 0 1 0 15 0 a7.5 7.5 0 1 0 -15 0zM1245.18 651.43 a7.5 7.5 0 1 0 15 0 a7.5 7.5 0 1 0 -15 0zM1180.23 613.93 a7.5 7.5 0 1 0 15 0 a7.5 7.5 0 1 0 -15 0zM1180.23 538.93 a7.5 7.5 0 1 0 15 0 a7.5 7.5 0 1 0 -15 0zM1375.09 51.43 a7.5 7.5 0 1 0 15 0 a7.5 7.5 0 1 0 -15 0zM1440.04 88.93 a7.5 7.5 0 1 0 15 0 a7.5 7.5 0 1 0 -15 0zM1440.04 163.93 a7.5 7.5 0 1 0 15 0 a7.5 7.5 0 1 0 -15 0zM1375.09 201.43 a7.5 7.5 0 1 0 15 0 a7.5 7.5 0 1 0 -15 0zM1310.13 163.93 a7.5 7.5 0 1 0 15 0 a7.5 7.5 0 1 0 -15 0zM1310.13 88.93 a7.5 7.5 0 1 0 15 0 a7.5 7.5 0 1 0 -15 0z" fill="rgba(102, 0, 255, 1)"></path><path d="M36.1 -7.78L79.4 17.22L79.4 67.22L36.1 92.22L-7.2 67.22L-7.2 17.22zM79.4 217.22L122.71 242.22L122.71 292.22L79.4 317.22L36.1 292.22L36.1 242.22zM36.1 292.22L79.4 317.22L79.4 367.22L36.1 392.22L-7.2 367.22L-7.2 317.22zM122.71 -7.78L166.01 17.22L166.01 67.22L122.71 92.22L79.4 67.22L79.4 17.22zM209.31 -7.78L252.61 17.22L252.61 67.22L209.31 92.22L166.01 67.22L166.01 17.22zM252.61 67.22L295.92 92.22L295.92 142.22L252.61 167.22L209.31 142.22L209.31 92.22zM252.61 217.22L295.92 242.22L295.92 292.22L252.61 317.22L209.31 292.22L209.31 242.22zM252.61 517.22L295.92 542.22L295.92 592.22L252.61 617.22L209.31 592.22L209.31 542.22zM295.92 142.22L339.22 167.22L339.22 217.22L295.92 242.22L252.61 217.22L252.61 167.22zM339.22 217.22L382.52 242.22L382.52 292.22L339.22 317.22L295.92 292.22L295.92 242.22zM382.52 142.22L425.82 167.22L425.82 217.22L382.52 242.22L339.22 217.22L339.22 167.22zM425.82 217.22L469.13 242.22L469.13 292.22L425.82 317.22L382.52 292.22L382.52 242.22zM382.52 292.22L425.82 317.22L425.82 367.22L382.52 392.22L339.22 367.22L339.22 317.22zM425.82 367.22L469.13 392.22L469.13 442.22L425.82 467.22L382.52 442.22L382.52 392.22zM425.82 517.22L469.13 542.22L469.13 592.22L425.82 617.22L382.52 592.22L382.52 542.22zM469.13 -7.78L512.43 17.22L512.43 67.22L469.13 92.22L425.82 67.22L425.82 17.22zM512.43 217.22L555.73 242.22L555.73 292.22L512.43 317.22L469.13 292.22L469.13 242.22zM555.73 -7.78L599.03 17.22L599.03 67.22L555.73 92.22L512.43 67.22L512.43 17.22zM555.73 142.22L599.03 167.22L599.03 217.22L555.73 242.22L512.43 217.22L512.43 167.22zM599.03 217.22L642.34 242.22L642.34 292.22L599.03 317.22L555.73 292.22L555.73 242.22zM599.03 367.22L642.34 392.22L642.34 442.22L599.03 467.22L555.73 442.22L555.73 392.22zM685.64 217.22L728.94 242.22L728.94 292.22L685.64 317.22L642.34 292.22L642.34 242.22zM642.34 292.22L685.64 317.22L685.64 367.22L642.34 392.22L599.03 367.22L599.03 317.22zM685.64 367.22L728.94 392.22L728.94 442.22L685.64 467.22L642.34 442.22L642.34 392.22zM642.34 442.22L685.64 467.22L685.64 517.22L642.34 542.22L599.03 517.22L599.03 467.22zM685.64 517.22L728.94 542.22L728.94 592.22L685.64 617.22L642.34 592.22L642.34 542.22zM772.24 67.22L815.55 92.22L815.55 142.22L772.24 167.22L728.94 142.22L728.94 92.22zM728.94 142.22L772.24 167.22L772.24 217.22L728.94 242.22L685.64 217.22L685.64 167.22zM772.24 217.22L815.55 242.22L815.55 292.22L772.24 317.22L728.94 292.22L728.94 242.22zM728.94 292.22L772.24 317.22L772.24 367.22L728.94 392.22L685.64 367.22L685.64 317.22zM902.15 -7.78L945.45 17.22L945.45 67.22L902.15 92.22L858.85 67.22L858.85 17.22zM945.45 67.22L988.76 92.22L988.76 142.22L945.45 167.22L902.15 142.22L902.15 92.22zM902.15 292.22L945.45 317.22L945.45 367.22L902.15 392.22L858.85 367.22L858.85 317.22zM945.45 517.22L988.76 542.22L988.76 592.22L945.45 617.22L902.15 592.22L902.15 542.22zM988.76 292.22L1032.06 317.22L1032.06 367.22L988.76 392.22L945.45 367.22L945.45 317.22zM1032.06 517.22L1075.36 542.22L1075.36 592.22L1032.06 617.22L988.76 592.22L988.76 542.22zM1075.36 292.22L1118.66 317.22L1118.66 367.22L1075.36 392.22L1032.06 367.22L1032.06 317.22zM1205.27 367.22L1248.57 392.22L1248.57 442.22L1205.27 467.22L1161.96 442.22L1161.96 392.22zM1161.96 442.22L1205.27 467.22L1205.27 517.22L1161.96 542.22L1118.66 517.22L1118.66 467.22zM1291.87 67.22L1335.17 92.22L1335.17 142.22L1291.87 167.22L1248.57 142.22L1248.57 92.22zM1291.87 217.22L1335.17 242.22L1335.17 292.22L1291.87 317.22L1248.57 292.22L1248.57 242.22zM1291.87 517.22L1335.17 542.22L1335.17 592.22L1291.87 617.22L1248.57 592.22L1248.57 542.22zM1378.48 67.22L1421.78 92.22L1421.78 142.22L1378.48 167.22L1335.17 142.22L1335.17 92.22zM1335.17 142.22L1378.48 167.22L1378.48 217.22L1335.17 242.22L1291.87 217.22L1291.87 167.22zM1465.08 67.22L1508.38 92.22L1508.38 142.22L1465.08 167.22L1421.78 142.22L1421.78 92.22zM1421.78 142.22L1465.08 167.22L1465.08 217.22L1421.78 242.22L1378.48 217.22L1378.48 167.22zM1465.08 367.22L1508.38 392.22L1508.38 442.22L1465.08 467.22L1421.78 442.22L1421.78 392.22zM1421.78 442.22L1465.08 467.22L1465.08 517.22L1421.78 542.22L1378.48 517.22L1378.48 467.22z" stroke="rgba(6, 80, 156, 0.93)" stroke-width="2"></path></g><defs><mask id="SvgjsMask1007"><rect width="1440" height="560" fill="#ffffff"></rect></mask></defs></svg>